<svg width="120" height="120" viewBox="0 0 120 120" fill="none" xmlns="http://www.w3.org/2000/svg">
  <rect width="120" height="120" rx="28" fill="#EEF6FF"/>
  <path d="M31 19H89L83.8 100L60 107L36.2 100L31 19Z" fill="#1572B6"/>
  <path d="M60 25.5V99.2L79.1 93.9L83.5 25.5H60Z" fill="#33A9DC"/>
  <path d="M43.1 47.7H60V37.8H42.4L41.9 29.9H60V20H31.2L33.8 57.5H60V47.7H43.1Z" fill="#EBEBEB"/>
  <path d="M60 81.8L45.6 77.9L44.7 66.8H35L36.4 85.5L60 92.1V81.8Z" fill="#EBEBEB"/>
  <path d="M75.7 57.5L74.2 77.9L60 81.8V92.1L83.5 85.5L87.1 37.8H60V47.7H76.5L75.7 57.5H60V67.3H74.9L75.7 57.5Z" fill="#FFFFFF"/>
  <path d="M60 20V29.9H87.9L88.6 20H60Z" fill="#FFFFFF"/>
</svg>
